<svg id="Layer_1" data-name="Layer 1" xmlns="http://www.w3.org/2000/svg" viewBox="0 0 198.61 365.94"><defs><style>.cls-1,.cls-2{fill:#231f20;}.cls-1{stroke:#231f20;stroke-miterlimit:10;stroke-width:5px;}.cls-3{fill:#fff;}</style></defs><title>logo</title><rect class="cls-1" x="92.25" y="2.61" width="15" height="361"/><rect class="cls-1" x="92.25" y="3.42" width="15" height="192.93" transform="translate(199.64 0.13) rotate(90)"/><path class="cls-2" d="M100.5,318.58a113.62,113.62,0,0,1-27-3.12A61.76,61.76,0,0,1,50.9,305a52.23,52.23,0,0,1-15.52-19.06c-3.8-7.75-5.73-17.25-5.72-28.23v-3l28,0v3c0,6.35,1.14,11.76,3.41,16.08a30.16,30.16,0,0,0,9.18,10.66,38.87,38.87,0,0,0,13.49,6.07,72,72,0,0,0,31.5.38,45.65,45.65,0,0,0,13.12-4.82,26.09,26.09,0,0,0,9.07-8.46c2.25-3.42,3.4-7.81,3.4-13.05,0-4.61-1.24-8.17-3.82-10.89a32.85,32.85,0,0,0-11.08-7.36,90.06,90.06,0,0,0-16.52-5c-6.36-1.33-13-2.77-19.79-4.3s-13.54-3.38-20-5.49a62.29,62.29,0,0,1-17.94-9.14,46,46,0,0,1-12.92-15.06c-3.33-6.12-5-13.87-5-23.06,0-9.67,1.93-18.17,5.7-25.28a51.62,51.62,0,0,1,15.08-17.6,66.78,66.78,0,0,1,21-10.25,84.91,84.91,0,0,1,23.74-3.37,90.12,90.12,0,0,1,26.69,3.8,59.09,59.09,0,0,1,21.37,11.68A54.65,54.65,0,0,1,161.49,163c3.39,7.78,5.26,17.08,5.56,27.64l.08,3.09-28,0-.06-2.93c-.27-12.29-4-21.27-11.24-27.46s-16.92-9.36-28.55-9.37a55.9,55.9,0,0,0-13.9,1.78A38.85,38.85,0,0,0,73.24,161a28,28,0,0,0-8.43,8.85,23.19,23.19,0,0,0-3.13,12.16c0,5.64,1.33,10.17,4,13.46A33,33,0,0,0,77,204.26a77.83,77.83,0,0,0,16.76,5.82c6.54,1.52,13.27,3,20,4.4,6.94,1.44,13.79,3.2,20.35,5.24a71.23,71.23,0,0,1,18.17,8.42,42.34,42.34,0,0,1,13.23,13.8c3.37,5.65,5.08,12.85,5.07,21.4,0,10.73-2.17,19.79-6.43,26.93a50.3,50.3,0,0,1-16.64,17.08,67.18,67.18,0,0,1-22.53,8.8,123.6,123.6,0,0,1-24.35,2.43Z"/><path class="cls-3" d="M99.25,130.79h.07a86.9,86.9,0,0,1,25.73,3.66,55.91,55.91,0,0,1,20.29,11.08,51.52,51.52,0,0,1,13.4,18.62q4.88,11.19,5.31,26.53l-22,0q-.43-19.6-12.29-29.68T99.3,150.9h0a58.43,58.43,0,0,0-14.6,1.88,41.8,41.8,0,0,0-13.1,5.77,30.81,30.81,0,0,0-9.32,9.8,26,26,0,0,0-3.56,13.7q0,9.55,4.64,15.34A35.91,35.91,0,0,0,75.63,207,80.59,80.59,0,0,0,93,213q9.76,2.26,20.07,4.41t20.08,5.17a68.63,68.63,0,0,1,17.41,8.06,39.36,39.36,0,0,1,12.3,12.83q4.65,7.8,4.64,19.87,0,15.33-6,25.39a47.07,47.07,0,0,1-15.65,16.08,64.35,64.35,0,0,1-21.53,8.4,120.55,120.55,0,0,1-23.75,2.37h-.1a110.16,110.16,0,0,1-26.28-3,58.47,58.47,0,0,1-21.51-9.94,49.06,49.06,0,0,1-14.63-18q-5.43-11.07-5.42-26.91l22,0q0,10.32,3.75,17.48a33.1,33.1,0,0,0,10.09,11.7A41.62,41.62,0,0,0,83,293.44a73.52,73.52,0,0,0,17.53,2h0a74.37,74.37,0,0,0,15.26-1.62,48.46,48.46,0,0,0,14-5.15,29,29,0,0,0,10.1-9.42q3.89-5.89,3.89-14.7,0-8-4.65-12.95a35.45,35.45,0,0,0-12.08-8.06A92.8,92.8,0,0,0,110,238.4q-9.64-2-19.74-4.29t-19.74-5.42A58.84,58.84,0,0,1,53.43,220a42.94,42.94,0,0,1-12.08-14.09q-4.65-8.55-4.64-21.63,0-13.81,5.35-23.88a48.37,48.37,0,0,1,14.21-16.58A63.42,63.42,0,0,1,76.35,134a81.45,81.45,0,0,1,22.9-3.25m0-6a87.78,87.78,0,0,0-24.57,3.49,69.79,69.79,0,0,0-22,10.72,54.61,54.61,0,0,0-16,18.6c-4,7.55-6,16.52-6,26.69,0,9.69,1.8,17.93,5.37,24.5a49,49,0,0,0,13.77,16,65.08,65.08,0,0,0,18.8,9.58c6.56,2.14,13.38,4,20.28,5.57s13.46,3,19.83,4.31a86.41,86.41,0,0,1,16,4.82,29.67,29.67,0,0,1,10.07,6.66c2,2.13,3,5,3,8.81,0,4.65-1,8.49-2.9,11.41a22.81,22.81,0,0,1-8.05,7.5A42.31,42.31,0,0,1,114.6,288a68.93,68.93,0,0,1-30.17-.35A36.18,36.18,0,0,1,72,282a26.89,26.89,0,0,1-8.26-9.61c-2.05-3.89-3.08-8.83-3.07-14.69v-6h-6l-22,0h-6v6c0,11.44,2,21.38,6,29.55A55.24,55.24,0,0,0,49.1,307.39a64.59,64.59,0,0,0,23.68,11,117.08,117.08,0,0,0,27.72,3.21h.1a127.27,127.27,0,0,0,24.93-2.48,70.68,70.68,0,0,0,23.53-9.2,53.2,53.2,0,0,0,17.62-18.1c4.55-7.61,6.85-17.18,6.86-28.46,0-9.1-1.84-16.82-5.49-22.94a45.58,45.58,0,0,0-14.15-14.77A74.72,74.72,0,0,0,135,216.85c-6.65-2.06-13.59-3.85-20.62-5.31-6.71-1.39-13.42-2.87-19.94-4.39a74.7,74.7,0,0,1-16.11-5.58A30.08,30.08,0,0,1,68,193.63c-2.24-2.79-3.33-6.57-3.32-11.58a20,20,0,0,1,2.7-10.61,24.68,24.68,0,0,1,7.54-7.92,35.84,35.84,0,0,1,11.23-4.93,52.76,52.76,0,0,1,13.11-1.69c11.09,0,19.8,2.84,26.66,8.66,6.59,5.6,9.92,13.85,10.17,25.23l.13,5.87h5.86l22,0h6.18l-.17-6.17c-.31-10.95-2.27-20.62-5.8-28.76a57.71,57.71,0,0,0-15-20.74,62.05,62.05,0,0,0-22.45-12.29,93.26,93.26,0,0,0-27.51-3.93h-.07Z"/></svg>